<svg width="159" height="40" viewBox="0 0 159 40" fill="none" xmlns="http://www.w3.org/2000/svg">
<path fill-rule="evenodd" clip-rule="evenodd" d="M33.2534 21.7085L33.3221 21.7905C33.3551 22.0571 33.3414 22.2391 33.3414 22.2391L33.2534 21.7085ZM30.5779 19.6044C30.5822 19.5578 30.5887 19.5087 30.5979 19.4577C30.3323 19.4673 30.1199 19.5008 30.5779 19.6044ZM30.6069 19.4106C30.6527 19.1842 30.7472 18.9175 30.9088 18.6142C31.1998 18.0682 31.3624 17.7566 31.4471 17.5892L31.8603 17.3086L32.7499 17.6852L33.4753 18.4478L33.9015 18.0564L33.6024 17.7194L34.2275 17.0821L35.1673 17.5483L36.3404 17.1324L37.0237 17.4619L37.5192 17.9332L37.7229 18.0771L38.1555 17.2138L37.2966 17.01L37.4673 16.2573L37.1149 15.9283L37.3205 15.4754L37.8783 15.3545L38.8398 15.5927L39.2753 15.3835C38.1491 10.8088 35.4353 6.59239 31.2905 3.6683C27.6938 1.13084 23.5576 -0.0536265 19.4855 0.00186102L20.3166 0.578683L20.5439 1.04166L21.1343 1.68046L20.9994 1.99058L22.0751 2.80982L22.1709 2.3514L21.2095 1.6319L21.5911 1.57825L21.6902 1.26301L20.8037 0.637574L22.2709 0.600629L23.1973 1.25422L23.217 2.1592L23.9115 2.70948L24.6398 2.59565L24.8537 2.989L23.8478 3.14928C23.8478 3.14928 23.0073 2.57846 23.0478 2.60712C23.0885 2.63578 22.7203 3.22478 22.7203 3.22478L23.7466 3.9075L24.0437 3.71393L24.7665 4.16244L25.1313 3.81344L24.7709 3.45649L25.1618 3.18618L25.5403 3.31246L26.5925 4.13514L25.614 4.25444L25.4186 4.74313L25.9788 5.2802L26.4665 4.49187L27.2831 4.60231L28.4305 5.22982L29.4971 6.994L29.0913 7.57756L29.4967 8.04563L28.9299 8.33365L28.2351 7.84349L27.6612 8.22706L26.3348 6.73569L28.0434 6.95364L27.8479 6.21574L26.6776 5.59217L26.5159 5.62307L26.5133 5.61913L26.4812 5.6303L25.9479 5.7325L25.4064 5.41289L25.2703 5.69572L25.3978 5.89576L25.3324 5.9745L24.8746 5.73931L24.6765 5.95838L24.2638 5.69792L24.5247 5.16862L23.6592 4.88088L21.6058 4.70218L21.3525 5.41775L21.5761 5.97135L22.315 6.6597L21.6716 7.58477L22.0913 7.79089L22.9417 7.31351L24.0009 7.6524L24.7726 6.54265L25.5086 6.52001L26.4856 7.61881L25.8936 8.29439L26.2071 8.51554L27.3582 8.70111L26.73 9.69308L27.0908 10.5137L26.6675 11.066L25.9277 10.8467L25.8369 11.0642L26.3313 11.9008L26.0428 12.2836L25.8217 12.154C25.8253 12.1471 25.8269 12.1419 25.8269 12.1419L25.1107 11.2197L25.2746 10.9014L25.274 10.9008L25.6673 10.9065L25.852 10.6409L25.6154 10.3671L25.3737 10.5617L24.8175 10.2848L24.779 10.2332L24.7617 10.2581L24.5696 10.1616L24.6262 9.7762L24.5122 9.58879L24.1545 9.3365L23.8991 9.35521L23.6937 9.6506L23.9288 9.96791L24.2014 10.2236L24.1129 10.2056L23.6254 10.3157L23.6098 10.0783L23.3922 9.81991L22.193 9.98784L22.2339 10.132L20.7509 9.96729L19.0158 10.301L18.6232 10.7172L17.1525 10.666L16.3023 10.8145L15.6599 11.8577L15.1891 11.0451L15.6025 10.4614L13.6686 9.09817L12.3163 8.8965L11.3261 9.38865L10.7132 9.90027L10.5676 10.713L11.2898 11.3654L13.1241 11.4148L12.9459 11.9061L12.0626 12.3561L12.9037 13.1918L11.9782 14.7274L13.132 15.8715L14.6285 15.5007L15.4946 16.4166L15.5077 17.157L16.5142 17.7825L16.7394 17.5168L17.0922 18.149L17.0408 19.5075L18.0658 20.2518L17.9846 21.1872L17.4728 22.039L18.3158 23.2803L19.7492 24.3138L19.6914 25.3027L20.1891 25.9587L19.6691 26.4438L18.3507 26.8365L16.7791 28.658L15.799 28.7096L14.8789 28.0191L14.1889 28.3409L13.7121 29.5243L11.784 30.1049L11.0418 30.4725L9.74371 30.2509L9.03551 29.8962L8.82097 30.1481L9.18123 30.5938L8.92421 30.8475L8.25301 30.9496L8.28361 31.4295L8.75884 31.7849L8.47304 32.1377L8.08886 32.4138L7.84006 32.6828L8.13881 33.79L7.82605 34.035L6.86332 33.3282L6.47924 31.8L6.64393 29.9425L7.63815 28.7389L7.5946 27.5748L8.72245 26.4496L8.44806 26.1154L10.3924 23.3196C10.3924 23.3196 9.93953 21.9269 9.88471 21.8882C9.82974 21.8496 9.46506 21.4102 9.46506 21.4102L9.73686 20.8145L9.57393 18.3926L10.0831 17.9231L10.7561 17.0423L12.03 17.0498L12.6153 15.9452L11.4276 14.9676L11.2213 13.1627L10.6598 12.4806L10.2681 12.0816L10.6051 11.713L10.0892 11.2284L9.92872 11.4591L8.74499 10.0938L8.7794 8.81015L9.30975 8.5502L9.3198 6.59421L9.83446 5.52119L9.46674 5.26176L8.93776 6.28348L8.89421 7.6889L8.5612 8.02109L8.08704 7.56498L8.2052 5.99419L9.10327 4.70275L8.6486 3.89623L9.29498 2.96688C7.08837 4.3374 5.11964 6.16781 3.54315 8.43472C-2.71887 17.4392 -0.460067 29.9523 8.57856 36.3289C13.7025 39.9437 19.9216 40.8199 25.4893 39.2616L24.9483 38.88L25.7032 37.7945L25.661 36.5137L26.569 35.2081L26.4215 34.397L26.7571 33.8243L28.1666 33.0989L28.4238 30.2652L29.5128 28.9879L28.5522 28.1513L28.4349 27.5026L27.7393 27.0118L27.1598 27.0876L25.9333 26.2225L25.8165 26.3019L25.1345 25.8206L24.8053 22.9395L25.7809 21.5641L26.1052 21.6523L26.5698 21.1905L26.202 20.9311L26.4382 20.2691L29.1547 20.2446L29.7965 19.3215L30.6069 19.4106ZM31.4471 17.5892C31.6516 17.1842 31.3994 17.6214 31.3994 17.6214L31.4471 17.5892ZM30.6069 19.4106C30.6035 19.4264 30.6006 19.4422 30.5979 19.4577C30.7963 19.4503 31.0242 19.4565 31.0242 19.4565L30.6069 19.4106ZM34.8085 14.7753L35.1183 14.6509L35.7325 14.9224L35.414 15.6691L35.38 16.3319L35.4187 16.6842L35.6719 17.064L35.0753 17.2208L34.3997 16.8342L33.9237 16.4983L34.3686 15.9731L34.8216 16.1709L34.9724 15.8824L34.7636 15.3914L34.6281 15.0332L34.8085 14.7753ZM33.2161 15.1694L33.9067 14.8777L34.4189 15.0868L34.6381 15.4435L34.3642 15.7763L33.3597 15.7757L32.9792 15.5071L33.2147 15.1685L33.2161 15.1694ZM22.9134 10.895L22.5523 10.6826L22.7352 10.4591L23.0195 10.3772L23.1131 10.6824L22.9134 10.895ZM24.4003 11.3217L24.1534 11.177L23.9503 11.3683L23.6933 11.3531L23.3884 11.1741C23.4254 11.0996 23.4553 11.0444 23.4553 11.0444L23.3434 10.9655L23.5113 10.7242L23.9809 11.0554L24.2512 10.8746L24.4403 11.0028L24.6227 11.1971L24.4003 11.3217Z" fill="#4C9A60"/>
<path fill-rule="evenodd" clip-rule="evenodd" d="M39.9038 29.3817L39.9615 29.5387L39.9346 29.5197L39.9038 29.3817ZM40.3612 30.6279L40.3624 30.5917L40.372 30.6575L40.3612 30.6279ZM40.2452 29.7824L40.2622 29.7508L40.238 29.7338L40.2452 29.7824ZM41.0586 28.2764L41.0417 28.2572L41.0617 28.2709L41.0586 28.2764Z" fill="#4C9A60"/>
<path d="M44.9224 9.89502H58.9919C61.3368 9.89502 63.0342 10.4349 64.0838 11.5146C65.1557 12.5717 65.6917 14.2813 65.6917 16.6431V20.0171C65.6917 22.3789 65.1557 24.0997 64.0838 25.1794C63.0342 26.2365 61.3368 26.7652 58.9919 26.7652H50.9522V33.5132H44.9224V9.89502ZM59.6619 16.6431C59.6619 15.2935 58.9919 14.6187 57.652 14.6187H50.9522V22.0415H57.652C58.9919 22.0415 59.6619 21.3667 59.6619 20.0171V16.6431ZM83.7798 16.3057C83.7798 14.9561 83.1098 14.2813 81.7698 14.2813H76.075C74.7351 14.2813 74.0651 14.9561 74.0651 16.3057V27.1026C74.0651 28.4522 74.7351 29.127 76.075 29.127H81.7698C83.1098 29.127 83.7798 28.4522 83.7798 27.1026V16.3057ZM89.8096 27.1026C89.8096 29.4644 89.2736 31.1852 88.2016 32.2649C87.152 33.322 85.4547 33.8506 83.1098 33.8506H74.7351C72.3901 33.8506 70.6817 33.322 69.6097 32.2649C68.5601 31.1852 68.0353 29.4644 68.0353 27.1026V16.3057C68.0353 13.9439 68.5601 12.2343 69.6097 11.1772C70.6817 10.0975 72.3901 9.55762 74.7351 9.55762H83.1098C85.4547 9.55762 87.152 10.0975 88.2016 11.1772C89.2736 12.2343 89.8096 13.9439 89.8096 16.3057V27.1026ZM99.2051 28.7896H111.432V33.5132H93.1753V9.89502H99.2051V28.7896ZM113.785 9.89502H127.854C130.199 9.89502 131.897 10.4349 132.946 11.5146C134.018 12.5717 134.554 14.2813 134.554 16.6431V19.6797C134.554 21.5466 134.242 22.9975 133.616 24.0322C133.013 25.067 132.042 25.753 130.702 26.0904L134.889 33.5132H128.357L124.505 26.4278H119.815V33.5132H113.785V9.89502ZM128.524 16.6431C128.524 15.2935 127.854 14.6187 126.515 14.6187H119.815V21.7041H126.515C127.854 21.7041 128.524 21.0293 128.524 19.6797V16.6431ZM137.895 9.89502H151.965C154.31 9.89502 156.006 10.4349 157.057 11.5146C158.129 12.5717 158.665 14.2813 158.665 16.6431V19.6797C158.665 21.5466 158.351 22.9975 157.727 24.0322C157.124 25.067 156.153 25.753 154.813 26.0904L159 33.5132H152.468L148.615 26.4278H143.925V33.5132H137.895V9.89502ZM152.635 16.6431C152.635 15.2935 151.965 14.6187 150.625 14.6187H143.925V21.7041H150.625C151.965 21.7041 152.635 21.0293 152.635 19.6797V16.6431Z" fill="#4C9A60"/>
</svg>
